<svg xmlns="http://www.w3.org/2000/svg" viewBox="0 0 1000 420"><style>.b{fill:#080C0A}.p{fill:#0F1713;stroke:#2EC4B6;stroke-opacity:.2}.m{font:11px monospace;fill:#7E958A;letter-spacing:1.5px}.t{font:700 18px monospace;fill:#E8EEE9}.s{font:10px monospace;fill:#7A8D84}.f{stroke:#2EC4B6;stroke-width:3;stroke-dasharray:10 8;animation:f 3s linear infinite}@keyframes f{to{stroke-dashoffset:-90}}</style><rect width="1000" height="420" rx="24" class="b"/><rect x=".5" y=".5" width="999" height="419" rx="23" fill="none" stroke="#2EC4B6" stroke-opacity=".16"/><text x="28" y="30" class="m">SENTINEL LAKEHOUSE / ARCHITECTURE IN MOTION</text><text x="28" y="58" class="t">Raw → Quality → Trusted → Semantic</text><rect x="28" y="86" width="944" height="44" rx="12" class="p"/><text x="46" y="114" class="m">SOURCE</text><text x="160" y="114" class="s">Oracle · SQL Server · MySQL · ClickHouse</text><rect x="28" y="150" width="944" height="44" rx="12" class="p"/><text x="46" y="178" class="m">BRONZE</text><text x="160" y="178" class="s">Raw Ingest · Incremental Processing · Schema Evolution</text><rect x="28" y="214" width="944" height="44" rx="12" class="p" stroke="#E8762E"/><text x="46" y="242" class="m">QUALITY</text><text x="160" y="242" class="s">Validation · Data Quality · Quarantine</text><rect x="28" y="278" width="944" height="44" rx="12" class="p"/><text x="46" y="306" class="m">SILVER</text><text x="160" y="306" class="s">CDC · Deduplication · SCD1/SCD2 · Delta CDF</text><rect x="28" y="342" width="944" height="44" rx="12" class="p"/><text x="46" y="370" class="m">GOLD / SEMANTIC</text><text x="190" y="370" class="s">Marts · Dimensional Models · Meaning · Serving</text><line x1="500" y1="194" x2="500" y2="214" class="f"/><line x1="500" y1="258" x2="500" y2="278" class="f"/><line x1="500" y1="322" x2="500" y2="342" class="f"/></svg>