<svg xmlns="http://www.w3.org/2000/svg" width="1600" height="450" viewBox="0 0 1600 450">
<defs>
<linearGradient id="bg" x1="0" y1="0" x2="1" y2="1"><stop offset="0" stop-color="#06100E"/><stop offset="1" stop-color="#071614"/></linearGradient>
<linearGradient id="panel" x1="0" y1="0" x2="1" y2="1"><stop offset="0" stop-color="#0B1D1A"/><stop offset="1" stop-color="#0A1715"/></linearGradient>
<radialGradient id="g" cx="50%" cy="50%" r="60%"><stop offset="0" stop-color="#2EE6A7" stop-opacity=".18"/><stop offset="1" stop-color="#2EE6A7" stop-opacity="0"/></radialGradient>
<style>.m{font-family:ui-monospace,SFMono-Regular,Menlo,Consolas,monospace}.s{font-family:Inter,Segoe UI,Arial,sans-serif}.t{fill:#EAF4F0}.mt{fill:#91A8A2}.gt{fill:#2EE6A7}.ot{fill:#FFC085}.bt{fill:#A9E0FF}@keyframes flow{from{stroke-dashoffset:130}to{stroke-dashoffset:0}}@keyframes pulse{0%,100%{opacity:.2}50%{opacity:1}}@keyframes sweep{0%{transform:translateX(-1200px);opacity:0}25%{opacity:.35}75%{opacity:.35}100%{transform:translateX(1200px);opacity:0}}</style>
</defs><rect width="1600" height="450" rx="28" fill="url(#bg)"/><rect x="1" y="1" width="1598" height="448" rx="27" fill="none" stroke="#17352F"/><title>Sentinel Lakehouse Architecture</title>
<text x="50" y="56" class="m gt" font-size="14">SENTINEL LAKEHOUSE · ARCHITECTURE</text>
<text x="50" y="88" class="s t" font-size="28" font-weight="700">A Data Path Built To Make Failure Visible</text>
<g class="s"><rect x="60" y="144" width="150" height="82" rx="15" fill="url(#panel)" stroke="#17352F"/><text x="135" y="177" class="t" font-size="16" font-weight="700" text-anchor="middle">Sources</text><text x="135" y="201" class="m mt" font-size="11" text-anchor="middle">Files · Tables</text><rect x="300" y="144" width="150" height="82" rx="15" fill="url(#panel)" stroke="#17352F"/><text x="375" y="177" class="t" font-size="16" font-weight="700" text-anchor="middle">Ingest</text><text x="375" y="201" class="m mt" font-size="11" text-anchor="middle">Auto Loader</text><rect x="530" y="144" width="150" height="82" rx="15" fill="url(#panel)" stroke="#17352F"/><text x="605" y="177" class="t" font-size="16" font-weight="700" text-anchor="middle">Bronze</text><text x="605" y="201" class="m mt" font-size="11" text-anchor="middle">Raw Delta</text><rect x="750" y="144" width="200" height="82" rx="15" fill="url(#panel)" stroke="#FF9B4A"/><text x="850" y="177" class="t" font-size="16" font-weight="700" text-anchor="middle">Quality</text><text x="850" y="201" class="m mt" font-size="11" text-anchor="middle">DQ · Quarantine</text><rect x="1010" y="144" width="150" height="82" rx="15" fill="url(#panel)" stroke="#17352F"/><text x="1085" y="177" class="t" font-size="16" font-weight="700" text-anchor="middle">Silver</text><text x="1085" y="201" class="m mt" font-size="11" text-anchor="middle">Clean Delta</text><rect x="1240" y="144" width="150" height="82" rx="15" fill="url(#panel)" stroke="#17352F"/><text x="1315" y="177" class="t" font-size="16" font-weight="700" text-anchor="middle">Gold</text><text x="1315" y="201" class="m mt" font-size="11" text-anchor="middle">Marts</text><rect x="1450" y="144" width="110" height="82" rx="15" fill="url(#panel)" stroke="#17352F"/><text x="1505" y="177" class="t" font-size="16" font-weight="700" text-anchor="middle">Serve</text><text x="1505" y="201" class="m mt" font-size="11" text-anchor="middle">BI · API</text>
<path d="M216 185 H292" stroke="#2EE6A7" stroke-width="2.5" stroke-dasharray="6 10" style="animation:flow 4s linear infinite"/><path d="M456 185 H522" stroke="#FF9B4A" stroke-width="2.5" stroke-dasharray="6 10" style="animation:flow 4.5s linear infinite"/><path d="M686 185 H742" stroke="#2EE6A7" stroke-width="2.5" stroke-dasharray="6 10" style="animation:flow 5s linear infinite"/><path d="M956 185 H1002" stroke="#FF9B4A" stroke-width="2.5" stroke-dasharray="6 10" style="animation:flow 5.5s linear infinite"/><path d="M1166 185 H1232" stroke="#2EE6A7" stroke-width="2.5" stroke-dasharray="6 10" style="animation:flow 6s linear infinite"/><path d="M1396 185 H1442" stroke="#FF9B4A" stroke-width="2.5" stroke-dasharray="6 10" style="animation:flow 6.5s linear infinite"/>
</g>
<g class="m"><text x="60" y="282" class="gt" font-size="11">CONTROL PLANE</text><text x="60" y="307" class="t" font-size="14">Schema Evolution · Data Quality · CDC · SCD1/SCD2</text><text x="800" y="282" class="ot" font-size="11">OPERATING PLANE</text><text x="800" y="307" class="t" font-size="14">Observability · Governance · Performance Trade Offs</text></g>
<g fill="#2EE6A7"><circle cx="90" cy="365" r="2" opacity=".65" style="animation:pulse 2s linear 0s infinite"/><circle cx="156" cy="374" r="2" opacity=".65" style="animation:pulse 2.3s linear -0.2s infinite"/><circle cx="222" cy="383" r="2" opacity=".65" style="animation:pulse 2.6s linear -0.4s infinite"/><circle cx="288" cy="365" r="2" opacity=".65" style="animation:pulse 2.9s linear -0.6000000000000001s infinite"/><circle cx="354" cy="374" r="2" opacity=".65" style="animation:pulse 3.2s linear -0.8s infinite"/><circle cx="420" cy="383" r="2" opacity=".65" style="animation:pulse 2s linear -1s infinite"/><circle cx="486" cy="365" r="2" opacity=".65" style="animation:pulse 2.3s linear -1.2000000000000002s infinite"/><circle cx="552" cy="374" r="2" opacity=".65" style="animation:pulse 2.6s linear 0s infinite"/><circle cx="618" cy="383" r="2" opacity=".65" style="animation:pulse 2.9s linear -0.2s infinite"/><circle cx="684" cy="365" r="2" opacity=".65" style="animation:pulse 3.2s linear -0.4s infinite"/><circle cx="750" cy="374" r="2" opacity=".65" style="animation:pulse 2s linear -0.6000000000000001s infinite"/><circle cx="816" cy="383" r="2" opacity=".65" style="animation:pulse 2.3s linear -0.8s infinite"/><circle cx="882" cy="365" r="2" opacity=".65" style="animation:pulse 2.6s linear -1s infinite"/><circle cx="948" cy="374" r="2" opacity=".65" style="animation:pulse 2.9s linear -1.2000000000000002s infinite"/><circle cx="1014" cy="383" r="2" opacity=".65" style="animation:pulse 3.2s linear 0s infinite"/><circle cx="1080" cy="365" r="2" opacity=".65" style="animation:pulse 2s linear -0.2s infinite"/><circle cx="1146" cy="374" r="2" opacity=".65" style="animation:pulse 2.3s linear -0.4s infinite"/><circle cx="1212" cy="383" r="2" opacity=".65" style="animation:pulse 2.6s linear -0.6000000000000001s infinite"/><circle cx="1278" cy="365" r="2" opacity=".65" style="animation:pulse 2.9s linear -0.8s infinite"/><circle cx="1344" cy="374" r="2" opacity=".65" style="animation:pulse 3.2s linear -1s infinite"/><circle cx="1410" cy="383" r="2" opacity=".65" style="animation:pulse 2s linear -1.2000000000000002s infinite"/><circle cx="1476" cy="365" r="2" opacity=".65" style="animation:pulse 2.3s linear 0s infinite"/></g>
<text x="60" y="408" class="s mt" font-size="14">Databricks · Spark · Delta Lake · Lakeflow · Auto Loader · Unity Catalog</text></svg>