<svg xmlns="http://www.w3.org/2000/svg" width="1600" height="400" viewBox="0 0 1600 400">
<defs><linearGradient id="gb" x1="0" y1="0" x2="1" y2="1"><stop offset="0" stop-color="#06100E"/><stop offset="1" stop-color="#071614"/></linearGradient><style>.s{font-family:Inter,Segoe UI,Arial,sans-serif}.m{font-family:ui-monospace,SFMono-Regular,Menlo,Consolas,monospace}.t{fill:#EAF4F0}.mt{fill:#91A8A2}.gt{fill:#2EE6A7}.ot{fill:#FFC085}</style></defs>
<rect width="1600" height="400" rx="28" fill="url(#gb)"/><rect x="1" y="1" width="1598" height="398" rx="27" fill="none" stroke="#17352F"/>
<text x="58" y="55" class="m gt" font-size="11">RELATIONAL VIEW</text>
<text x="58" y="82" class="s t" font-size="24" font-weight="700">One Pipeline. Many Dependencies.</text>
<text x="58" y="106" class="s mt" font-size="13">The same data path I think about when designing, debugging, and optimizing systems.</text>
<path d="M125 205 C 237.5 205, 237.5 120, 350 120" fill="none" stroke="#17352F" stroke-width="3"/><path d="M125 205 C 237.5 205, 237.5 120, 350 120" fill="none" stroke="#2EE6A7" stroke-width="1.5" stroke-dasharray="7 12"><animate attributeName="stroke-dashoffset" values="140;0" dur="4s" begin="0s" repeatCount="indefinite"/></path><path d="M125 205 C 237.5 205, 237.5 290, 350 290" fill="none" stroke="#17352F" stroke-width="3"/><path d="M125 205 C 237.5 205, 237.5 290, 350 290" fill="none" stroke="#FF9B4A" stroke-width="1.5" stroke-dasharray="7 12"><animate attributeName="stroke-dashoffset" values="140;0" dur="4.4s" begin="-0.2s" repeatCount="indefinite"/></path><path d="M350 120 C 467.5 120, 467.5 205, 585 205" fill="none" stroke="#17352F" stroke-width="3"/><path d="M350 120 C 467.5 120, 467.5 205, 585 205" fill="none" stroke="#FF9B4A" stroke-width="1.5" stroke-dasharray="7 12"><animate attributeName="stroke-dashoffset" values="140;0" dur="4.8s" begin="-0.4s" repeatCount="indefinite"/></path><path d="M350 290 C 467.5 290, 467.5 205, 585 205" fill="none" stroke="#17352F" stroke-width="3"/><path d="M350 290 C 467.5 290, 467.5 205, 585 205" fill="none" stroke="#2EE6A7" stroke-width="1.5" stroke-dasharray="7 12"><animate attributeName="stroke-dashoffset" values="140;0" dur="5.2s" begin="-0.6000000000000001s" repeatCount="indefinite"/></path><path d="M585 205 C 702.5 205, 702.5 120, 820 120" fill="none" stroke="#17352F" stroke-width="3"/><path d="M585 205 C 702.5 205, 702.5 120, 820 120" fill="none" stroke="#FF9B4A" stroke-width="1.5" stroke-dasharray="7 12"><animate attributeName="stroke-dashoffset" values="140;0" dur="4s" begin="-0.8s" repeatCount="indefinite"/></path><path d="M585 205 C 702.5 205, 702.5 290, 820 290" fill="none" stroke="#17352F" stroke-width="3"/><path d="M585 205 C 702.5 205, 702.5 290, 820 290" fill="none" stroke="#FF9B4A" stroke-width="1.5" stroke-dasharray="7 12"><animate attributeName="stroke-dashoffset" values="140;0" dur="4.4s" begin="-1s" repeatCount="indefinite"/></path><path d="M820 120 C 940 120, 940 120, 1060 120" fill="none" stroke="#17352F" stroke-width="3"/><path d="M820 120 C 940 120, 940 120, 1060 120" fill="none" stroke="#2EE6A7" stroke-width="1.5" stroke-dasharray="7 12"><animate attributeName="stroke-dashoffset" values="140;0" dur="4.8s" begin="0s" repeatCount="indefinite"/></path><path d="M820 120 C 940 120, 940 290, 1060 290" fill="none" stroke="#17352F" stroke-width="3"/><path d="M820 120 C 940 120, 940 290, 1060 290" fill="none" stroke="#FF9B4A" stroke-width="1.5" stroke-dasharray="7 12"><animate attributeName="stroke-dashoffset" values="140;0" dur="5.2s" begin="-0.2s" repeatCount="indefinite"/></path><path d="M820 290 C 940 290, 940 120, 1060 120" fill="none" stroke="#17352F" stroke-width="3"/><path d="M820 290 C 940 290, 940 120, 1060 120" fill="none" stroke="#FF9B4A" stroke-width="1.5" stroke-dasharray="7 12"><animate attributeName="stroke-dashoffset" values="140;0" dur="4s" begin="-0.4s" repeatCount="indefinite"/></path><path d="M820 290 C 940 290, 940 290, 1060 290" fill="none" stroke="#17352F" stroke-width="3"/><path d="M820 290 C 940 290, 940 290, 1060 290" fill="none" stroke="#2EE6A7" stroke-width="1.5" stroke-dasharray="7 12"><animate attributeName="stroke-dashoffset" values="140;0" dur="4.4s" begin="-0.6000000000000001s" repeatCount="indefinite"/></path><path d="M1060 120 C 1192.5 120, 1192.5 205, 1325 205" fill="none" stroke="#17352F" stroke-width="3"/><path d="M1060 120 C 1192.5 120, 1192.5 205, 1325 205" fill="none" stroke="#FF9B4A" stroke-width="1.5" stroke-dasharray="7 12"><animate attributeName="stroke-dashoffset" values="140;0" dur="4.8s" begin="-0.8s" repeatCount="indefinite"/></path><path d="M1060 290 C 1192.5 290, 1192.5 205, 1325 205" fill="none" stroke="#17352F" stroke-width="3"/><path d="M1060 290 C 1192.5 290, 1192.5 205, 1325 205" fill="none" stroke="#FF9B4A" stroke-width="1.5" stroke-dasharray="7 12"><animate attributeName="stroke-dashoffset" values="140;0" dur="5.2s" begin="-1s" repeatCount="indefinite"/></path><g><circle cx="125" cy="205" r="11" fill="#06100E" stroke="#2EE6A7" stroke-width="2"><animate attributeName="r" values="9;13;9" dur="2.2s" begin="0s" repeatCount="indefinite"/></circle><text x="143" y="210" class="s t" font-size="14" font-weight="700">Sources</text></g><g><circle cx="350" cy="120" r="11" fill="#06100E" stroke="#5EC8FF" stroke-width="2"><animate attributeName="r" values="9;13;9" dur="2.5500000000000003s" begin="-0.2s" repeatCount="indefinite"/></circle><text x="368" y="125" class="s t" font-size="14" font-weight="700">Ingest</text></g><g><circle cx="350" cy="290" r="11" fill="#06100E" stroke="#FF9B4A" stroke-width="2"><animate attributeName="r" values="9;13;9" dur="2.9000000000000004s" begin="-0.4s" repeatCount="indefinite"/></circle><text x="368" y="295" class="s t" font-size="14" font-weight="700">Quality</text></g><g><circle cx="585" cy="205" r="11" fill="#06100E" stroke="#2EE6A7" stroke-width="2"><animate attributeName="r" values="9;13;9" dur="3.25s" begin="-0.6000000000000001s" repeatCount="indefinite"/></circle><text x="603" y="210" class="s t" font-size="14" font-weight="700">Bronze</text></g><g><circle cx="820" cy="120" r="11" fill="#06100E" stroke="#5EC8FF" stroke-width="2"><animate attributeName="r" values="9;13;9" dur="2.2s" begin="-0.8s" repeatCount="indefinite"/></circle><text x="838" y="125" class="s t" font-size="14" font-weight="700">Silver</text></g><g><circle cx="820" cy="290" r="11" fill="#06100E" stroke="#2EE6A7" stroke-width="2"><animate attributeName="r" values="9;13;9" dur="2.5500000000000003s" begin="0s" repeatCount="indefinite"/></circle><text x="838" y="295" class="s t" font-size="14" font-weight="700">Gold</text></g><g><circle cx="1060" cy="120" r="11" fill="#06100E" stroke="#FF9B4A" stroke-width="2"><animate attributeName="r" values="9;13;9" dur="2.9000000000000004s" begin="-0.2s" repeatCount="indefinite"/></circle><text x="1078" y="125" class="s t" font-size="14" font-weight="700">Semantic</text></g><g><circle cx="1060" cy="290" r="11" fill="#06100E" stroke="#5EC8FF" stroke-width="2"><animate attributeName="r" values="9;13;9" dur="3.25s" begin="-0.4s" repeatCount="indefinite"/></circle><text x="1078" y="295" class="s t" font-size="14" font-weight="700">Query</text></g><g><circle cx="1325" cy="205" r="11" fill="#06100E" stroke="#2EE6A7" stroke-width="2"><animate attributeName="r" values="9;13;9" dur="2.2s" begin="-0.6000000000000001s" repeatCount="indefinite"/></circle><text x="1343" y="210" class="s t" font-size="14" font-weight="700">Serve</text></g>
<g class="m mt" font-size="10"><text x="58" y="360">SOURCE</text><text x="330" y="360">INGEST</text><text x="560" y="360">STORAGE</text><text x="804" y="360">MODEL</text><text x="1045" y="360">SEMANTIC / QUERY</text><text x="1290" y="360">SERVE</text></g>
</svg>